<mxfile host="Electron" agent="Mozilla/5.0 (Windows NT 10.0; Win64; x64) AppleWebKit/537.36 (KHTML, like Gecko) draw.io/26.1.1 Chrome/132.0.6834.210 Electron/34.3.3 Safari/537.36" version="26.1.1">
  <diagram name="PÃ¡gina-1" id="7xglVGC-aeKuLjHzxvwo">
    <mxGraphModel dx="1877" dy="621" grid="1" gridSize="10" guides="1" tooltips="1" connect="1" arrows="1" fold="1" page="1" pageScale="1" pageWidth="827" pageHeight="1169" math="0" shadow="0">
      <root>
        <mxCell id="0" />
        <mxCell id="1" parent="0" />
        <mxCell id="9yZzxRejICjtK0BxfgnQ-2" value="Usuario" style="rounded=1;arcSize=10;whiteSpace=wrap;html=1;align=center;" parent="1" vertex="1">
          <mxGeometry x="80" y="240" width="100" height="40" as="geometry" />
        </mxCell>
        <mxCell id="9yZzxRejICjtK0BxfgnQ-21" style="edgeStyle=none;shape=connector;rounded=0;orthogonalLoop=1;jettySize=auto;html=1;exitX=0.5;exitY=1;exitDx=0;exitDy=0;entryX=0.5;entryY=0;entryDx=0;entryDy=0;strokeColor=default;align=center;verticalAlign=middle;fontFamily=Helvetica;fontSize=11;fontColor=default;labelBackgroundColor=default;startFill=0;endArrow=none;" parent="1" source="9yZzxRejICjtK0BxfgnQ-3" target="9yZzxRejICjtK0BxfgnQ-20" edge="1">
          <mxGeometry relative="1" as="geometry" />
        </mxCell>
        <mxCell id="9yZzxRejICjtK0BxfgnQ-50" style="edgeStyle=none;shape=connector;rounded=0;orthogonalLoop=1;jettySize=auto;html=1;exitX=0.5;exitY=1;exitDx=0;exitDy=0;entryX=0.5;entryY=0;entryDx=0;entryDy=0;strokeColor=default;align=center;verticalAlign=middle;fontFamily=Helvetica;fontSize=11;fontColor=default;labelBackgroundColor=default;startFill=0;endArrow=none;" parent="1" source="9yZzxRejICjtK0BxfgnQ-3" target="9yZzxRejICjtK0BxfgnQ-49" edge="1">
          <mxGeometry relative="1" as="geometry" />
        </mxCell>
        <mxCell id="9yZzxRejICjtK0BxfgnQ-84" style="edgeStyle=none;shape=connector;rounded=0;orthogonalLoop=1;jettySize=auto;html=1;exitX=0.25;exitY=1;exitDx=0;exitDy=0;entryX=0.5;entryY=0;entryDx=0;entryDy=0;strokeColor=default;align=center;verticalAlign=middle;fontFamily=Helvetica;fontSize=11;fontColor=default;labelBackgroundColor=default;startFill=0;endArrow=none;" parent="1" source="9yZzxRejICjtK0BxfgnQ-3" target="9yZzxRejICjtK0BxfgnQ-83" edge="1">
          <mxGeometry relative="1" as="geometry" />
        </mxCell>
        <mxCell id="9yZzxRejICjtK0BxfgnQ-100" style="edgeStyle=none;shape=connector;rounded=0;orthogonalLoop=1;jettySize=auto;html=1;exitX=1;exitY=1;exitDx=0;exitDy=0;entryX=0;entryY=0.5;entryDx=0;entryDy=0;strokeColor=default;align=center;verticalAlign=middle;fontFamily=Helvetica;fontSize=11;fontColor=default;labelBackgroundColor=default;startFill=0;endArrow=none;" parent="1" source="9yZzxRejICjtK0BxfgnQ-3" target="9yZzxRejICjtK0BxfgnQ-99" edge="1">
          <mxGeometry relative="1" as="geometry" />
        </mxCell>
        <mxCell id="9yZzxRejICjtK0BxfgnQ-118" style="edgeStyle=none;shape=connector;rounded=0;orthogonalLoop=1;jettySize=auto;html=1;exitX=1;exitY=0;exitDx=0;exitDy=0;entryX=0;entryY=0.5;entryDx=0;entryDy=0;strokeColor=default;align=center;verticalAlign=middle;fontFamily=Helvetica;fontSize=11;fontColor=default;labelBackgroundColor=default;startFill=0;endArrow=none;" parent="1" source="9yZzxRejICjtK0BxfgnQ-3" target="9yZzxRejICjtK0BxfgnQ-116" edge="1">
          <mxGeometry relative="1" as="geometry" />
        </mxCell>
        <mxCell id="9yZzxRejICjtK0BxfgnQ-3" value="Ficha" style="rounded=1;arcSize=10;whiteSpace=wrap;html=1;align=center;" parent="1" vertex="1">
          <mxGeometry x="400" y="240" width="100" height="40" as="geometry" />
        </mxCell>
        <mxCell id="9yZzxRejICjtK0BxfgnQ-6" style="edgeStyle=none;shape=connector;rounded=0;orthogonalLoop=1;jettySize=auto;html=1;exitX=0;exitY=0.5;exitDx=0;exitDy=0;entryX=1;entryY=0.5;entryDx=0;entryDy=0;strokeColor=default;align=center;verticalAlign=middle;fontFamily=Helvetica;fontSize=11;fontColor=default;labelBackgroundColor=default;startFill=0;endArrow=none;" parent="1" source="9yZzxRejICjtK0BxfgnQ-5" target="9yZzxRejICjtK0BxfgnQ-2" edge="1">
          <mxGeometry relative="1" as="geometry" />
        </mxCell>
        <mxCell id="9yZzxRejICjtK0BxfgnQ-8" value="1:1" style="edgeLabel;html=1;align=center;verticalAlign=middle;resizable=0;points=[];fontFamily=Helvetica;fontSize=11;fontColor=default;labelBackgroundColor=default;" parent="9yZzxRejICjtK0BxfgnQ-6" vertex="1" connectable="0">
          <mxGeometry x="-0.0111" relative="1" as="geometry">
            <mxPoint as="offset" />
          </mxGeometry>
        </mxCell>
        <mxCell id="9yZzxRejICjtK0BxfgnQ-7" style="edgeStyle=none;shape=link;rounded=0;orthogonalLoop=1;jettySize=auto;html=1;exitX=1;exitY=0.5;exitDx=0;exitDy=0;entryX=0;entryY=0.5;entryDx=0;entryDy=0;strokeColor=default;align=center;verticalAlign=middle;fontFamily=Helvetica;fontSize=11;fontColor=default;labelBackgroundColor=default;startFill=0;endArrow=none;" parent="1" source="9yZzxRejICjtK0BxfgnQ-5" target="9yZzxRejICjtK0BxfgnQ-3" edge="1">
          <mxGeometry relative="1" as="geometry" />
        </mxCell>
        <mxCell id="9yZzxRejICjtK0BxfgnQ-9" value="0:M" style="edgeLabel;html=1;align=center;verticalAlign=middle;resizable=0;points=[];fontFamily=Helvetica;fontSize=11;fontColor=default;labelBackgroundColor=default;" parent="9yZzxRejICjtK0BxfgnQ-7" vertex="1" connectable="0">
          <mxGeometry x="0.2" relative="1" as="geometry">
            <mxPoint as="offset" />
          </mxGeometry>
        </mxCell>
        <mxCell id="9yZzxRejICjtK0BxfgnQ-5" value="possui" style="shape=rhombus;perimeter=rhombusPerimeter;whiteSpace=wrap;html=1;align=center;fontFamily=Helvetica;fontSize=11;fontColor=default;labelBackgroundColor=default;" parent="1" vertex="1">
          <mxGeometry x="230" y="230" width="120" height="60" as="geometry" />
        </mxCell>
        <mxCell id="9yZzxRejICjtK0BxfgnQ-11" style="edgeStyle=none;shape=connector;rounded=0;orthogonalLoop=1;jettySize=auto;html=1;exitX=0.5;exitY=1;exitDx=0;exitDy=0;entryX=0.5;entryY=0;entryDx=0;entryDy=0;strokeColor=default;align=center;verticalAlign=middle;fontFamily=Helvetica;fontSize=11;fontColor=default;labelBackgroundColor=default;startFill=0;endArrow=none;" parent="1" source="9yZzxRejICjtK0BxfgnQ-10" target="9yZzxRejICjtK0BxfgnQ-5" edge="1">
          <mxGeometry relative="1" as="geometry" />
        </mxCell>
        <mxCell id="9yZzxRejICjtK0BxfgnQ-10" value="quantidadeFichas" style="ellipse;whiteSpace=wrap;html=1;align=center;fontFamily=Helvetica;fontSize=11;fontColor=default;labelBackgroundColor=default;" parent="1" vertex="1">
          <mxGeometry x="240" y="160" width="100" height="40" as="geometry" />
        </mxCell>
        <mxCell id="9yZzxRejICjtK0BxfgnQ-13" value="email" style="ellipse;whiteSpace=wrap;html=1;align=center;fontFamily=Helvetica;fontSize=11;fontColor=default;labelBackgroundColor=default;" parent="1" vertex="1">
          <mxGeometry x="-20" y="200" width="100" height="40" as="geometry" />
        </mxCell>
        <mxCell id="9yZzxRejICjtK0BxfgnQ-14" value="nomeUsuario" style="ellipse;whiteSpace=wrap;html=1;align=center;fontFamily=Helvetica;fontSize=11;fontColor=default;labelBackgroundColor=default;" parent="1" vertex="1">
          <mxGeometry x="-20" y="240" width="100" height="40" as="geometry" />
        </mxCell>
        <mxCell id="9yZzxRejICjtK0BxfgnQ-15" value="senha" style="ellipse;whiteSpace=wrap;html=1;align=center;fontFamily=Helvetica;fontSize=11;fontColor=default;labelBackgroundColor=default;" parent="1" vertex="1">
          <mxGeometry x="-20" y="280" width="100" height="40" as="geometry" />
        </mxCell>
        <mxCell id="9yZzxRejICjtK0BxfgnQ-16" value="nome" style="ellipse;whiteSpace=wrap;html=1;align=center;fontFamily=Helvetica;fontSize=11;fontColor=default;labelBackgroundColor=default;" parent="1" vertex="1">
          <mxGeometry x="770" y="100" width="100" height="40" as="geometry" />
        </mxCell>
        <mxCell id="9yZzxRejICjtK0BxfgnQ-17" value="vida" style="ellipse;whiteSpace=wrap;html=1;align=center;fontFamily=Helvetica;fontSize=11;fontColor=default;labelBackgroundColor=default;" parent="1" vertex="1">
          <mxGeometry x="770" y="140" width="100" height="40" as="geometry" />
        </mxCell>
        <mxCell id="9yZzxRejICjtK0BxfgnQ-18" value="classeArmadura" style="ellipse;whiteSpace=wrap;html=1;align=center;fontFamily=Helvetica;fontSize=11;fontColor=default;labelBackgroundColor=default;" parent="1" vertex="1">
          <mxGeometry x="770" y="180" width="100" height="40" as="geometry" />
        </mxCell>
        <mxCell id="9yZzxRejICjtK0BxfgnQ-19" value="alinhamento" style="ellipse;whiteSpace=wrap;html=1;align=center;fontFamily=Helvetica;fontSize=11;fontColor=default;labelBackgroundColor=default;" parent="1" vertex="1">
          <mxGeometry x="770" y="220" width="100" height="40" as="geometry" />
        </mxCell>
        <mxCell id="9yZzxRejICjtK0BxfgnQ-20" value="Classe" style="rounded=1;arcSize=10;whiteSpace=wrap;html=1;align=center;" parent="1" vertex="1">
          <mxGeometry x="340" y="350" width="100" height="40" as="geometry" />
        </mxCell>
        <mxCell id="9yZzxRejICjtK0BxfgnQ-23" value="constituicao&lt;span style=&quot;color: rgba(0, 0, 0, 0); font-family: monospace; font-size: 0px; text-align: start; text-wrap-mode: nowrap; background-color: rgb(251, 251, 251);&quot;&gt;%3CmxGraphModel%3E%3Croot%3E%3CmxCell%20id%3D%220%22%2F%3E%3CmxCell%20id%3D%221%22%20parent%3D%220%22%2F%3E%3CmxCell%20id%3D%222%22%20value%3D%22alinhamento%22%20style%3D%22ellipse%3BwhiteSpace%3Dwrap%3Bhtml%3D1%3Balign%3Dcenter%3BfontFamily%3DHelvetica%3BfontSize%3D11%3BfontColor%3Ddefault%3BlabelBackgroundColor%3Ddefault%3B%22%20vertex%3D%221%22%20parent%3D%221%22%3E%3CmxGeometry%20x%3D%22520%22%20y%3D%22280%22%20width%3D%22100%22%20height%3D%2240%22%20as%3D%22geometry%22%2F%3E%3C%2FmxCell%3E%3C%2Froot%3E%3C%2FmxGraphModel%3E&lt;/span&gt;" style="ellipse;whiteSpace=wrap;html=1;align=center;fontFamily=Helvetica;fontSize=11;fontColor=default;labelBackgroundColor=default;" parent="1" vertex="1">
          <mxGeometry x="450" y="390" width="100" height="40" as="geometry" />
        </mxCell>
        <mxCell id="9yZzxRejICjtK0BxfgnQ-24" value="forca" style="ellipse;whiteSpace=wrap;html=1;align=center;fontFamily=Helvetica;fontSize=11;fontColor=default;labelBackgroundColor=default;" parent="1" vertex="1">
          <mxGeometry x="450" y="430" width="100" height="40" as="geometry" />
        </mxCell>
        <mxCell id="9yZzxRejICjtK0BxfgnQ-25" value="destreza" style="ellipse;whiteSpace=wrap;html=1;align=center;fontFamily=Helvetica;fontSize=11;fontColor=default;labelBackgroundColor=default;" parent="1" vertex="1">
          <mxGeometry x="450" y="470" width="100" height="40" as="geometry" />
        </mxCell>
        <mxCell id="9yZzxRejICjtK0BxfgnQ-26" value="inteligencia" style="ellipse;whiteSpace=wrap;html=1;align=center;fontFamily=Helvetica;fontSize=11;fontColor=default;labelBackgroundColor=default;" parent="1" vertex="1">
          <mxGeometry x="450" y="510" width="100" height="40" as="geometry" />
        </mxCell>
        <mxCell id="9yZzxRejICjtK0BxfgnQ-27" value="sabedoria" style="ellipse;whiteSpace=wrap;html=1;align=center;fontFamily=Helvetica;fontSize=11;fontColor=default;labelBackgroundColor=default;" parent="1" vertex="1">
          <mxGeometry x="450" y="550" width="100" height="40" as="geometry" />
        </mxCell>
        <mxCell id="9yZzxRejICjtK0BxfgnQ-28" value="carisma" style="ellipse;whiteSpace=wrap;html=1;align=center;fontFamily=Helvetica;fontSize=11;fontColor=default;labelBackgroundColor=default;" parent="1" vertex="1">
          <mxGeometry x="450" y="590" width="100" height="40" as="geometry" />
        </mxCell>
        <mxCell id="9yZzxRejICjtK0BxfgnQ-32" value="proficiencia" style="ellipse;whiteSpace=wrap;html=1;align=center;fontFamily=Helvetica;fontSize=11;fontColor=default;labelBackgroundColor=default;" parent="1" vertex="1">
          <mxGeometry x="770" y="60" width="100" height="40" as="geometry" />
        </mxCell>
        <mxCell id="9yZzxRejICjtK0BxfgnQ-35" value="nivel" style="ellipse;whiteSpace=wrap;html=1;align=center;fontFamily=Helvetica;fontSize=11;fontColor=default;labelBackgroundColor=default;" parent="1" vertex="1">
          <mxGeometry x="880" y="100" width="100" height="40" as="geometry" />
        </mxCell>
        <mxCell id="9yZzxRejICjtK0BxfgnQ-37" value="proficencia" style="ellipse;whiteSpace=wrap;html=1;align=center;dashed=1;fontFamily=Helvetica;fontSize=11;fontColor=default;labelBackgroundColor=default;" parent="1" vertex="1">
          <mxGeometry x="960" y="100" width="100" height="40" as="geometry" />
        </mxCell>
        <mxCell id="9yZzxRejICjtK0BxfgnQ-49" value="Status" style="rounded=1;arcSize=10;whiteSpace=wrap;html=1;align=center;" parent="1" vertex="1">
          <mxGeometry x="450" y="350" width="100" height="40" as="geometry" />
        </mxCell>
        <mxCell id="9yZzxRejICjtK0BxfgnQ-53" value="&lt;span style=&quot;text-align: left;&quot;&gt;atletismo&amp;nbsp;&lt;/span&gt;" style="ellipse;whiteSpace=wrap;html=1;align=center;dashed=1;fontFamily=Helvetica;fontSize=11;fontColor=default;labelBackgroundColor=default;" parent="1" vertex="1">
          <mxGeometry x="650" y="430" width="100" height="40" as="geometry" />
        </mxCell>
        <mxCell id="9yZzxRejICjtK0BxfgnQ-55" value="&lt;span style=&quot;text-align: left;&quot;&gt;acrobacia&amp;nbsp;&lt;/span&gt;" style="ellipse;whiteSpace=wrap;html=1;align=center;dashed=1;fontFamily=Helvetica;fontSize=11;fontColor=default;labelBackgroundColor=default;" parent="1" vertex="1">
          <mxGeometry x="650" y="470" width="100" height="40" as="geometry" />
        </mxCell>
        <mxCell id="9yZzxRejICjtK0BxfgnQ-57" value="&lt;span style=&quot;text-align: left;&quot;&gt;furtividade&amp;nbsp;&lt;/span&gt;" style="ellipse;whiteSpace=wrap;html=1;align=center;dashed=1;fontFamily=Helvetica;fontSize=11;fontColor=default;labelBackgroundColor=default;" parent="1" vertex="1">
          <mxGeometry x="750" y="470" width="100" height="40" as="geometry" />
        </mxCell>
        <mxCell id="9yZzxRejICjtK0BxfgnQ-60" value="&lt;span style=&quot;text-align: left;&quot;&gt;arcanismo&lt;/span&gt;" style="ellipse;whiteSpace=wrap;html=1;align=center;dashed=1;fontFamily=Helvetica;fontSize=11;fontColor=default;labelBackgroundColor=default;" parent="1" vertex="1">
          <mxGeometry x="650" y="510" width="100" height="40" as="geometry" />
        </mxCell>
        <mxCell id="9yZzxRejICjtK0BxfgnQ-61" value="&lt;span style=&quot;text-align: left;&quot;&gt;historia&lt;/span&gt;" style="ellipse;whiteSpace=wrap;html=1;align=center;dashed=1;fontFamily=Helvetica;fontSize=11;fontColor=default;labelBackgroundColor=default;" parent="1" vertex="1">
          <mxGeometry x="750" y="510" width="100" height="40" as="geometry" />
        </mxCell>
        <mxCell id="9yZzxRejICjtK0BxfgnQ-62" value="&lt;span style=&quot;text-align: left;&quot;&gt;investigacao&lt;/span&gt;" style="ellipse;whiteSpace=wrap;html=1;align=center;dashed=1;fontFamily=Helvetica;fontSize=11;fontColor=default;labelBackgroundColor=default;" parent="1" vertex="1">
          <mxGeometry x="850" y="510" width="100" height="40" as="geometry" />
        </mxCell>
        <mxCell id="9yZzxRejICjtK0BxfgnQ-64" value="&lt;span style=&quot;text-align: left;&quot;&gt;natureza&lt;/span&gt;" style="ellipse;whiteSpace=wrap;html=1;align=center;dashed=1;fontFamily=Helvetica;fontSize=11;fontColor=default;labelBackgroundColor=default;" parent="1" vertex="1">
          <mxGeometry x="950" y="510" width="100" height="40" as="geometry" />
        </mxCell>
        <mxCell id="9yZzxRejICjtK0BxfgnQ-65" value="&lt;span style=&quot;text-align: left;&quot;&gt;religiao&lt;/span&gt;" style="ellipse;whiteSpace=wrap;html=1;align=center;dashed=1;fontFamily=Helvetica;fontSize=11;fontColor=default;labelBackgroundColor=default;" parent="1" vertex="1">
          <mxGeometry x="1050" y="510" width="100" height="40" as="geometry" />
        </mxCell>
        <mxCell id="9yZzxRejICjtK0BxfgnQ-66" value="&lt;span style=&quot;text-align: left;&quot;&gt;intuicao&lt;/span&gt;" style="ellipse;whiteSpace=wrap;html=1;align=center;dashed=1;fontFamily=Helvetica;fontSize=11;fontColor=default;labelBackgroundColor=default;" parent="1" vertex="1">
          <mxGeometry x="650" y="550" width="100" height="40" as="geometry" />
        </mxCell>
        <mxCell id="9yZzxRejICjtK0BxfgnQ-68" value="&lt;span style=&quot;text-align: left;&quot;&gt;medicina&lt;/span&gt;" style="ellipse;whiteSpace=wrap;html=1;align=center;dashed=1;fontFamily=Helvetica;fontSize=11;fontColor=default;labelBackgroundColor=default;" parent="1" vertex="1">
          <mxGeometry x="750" y="550" width="100" height="40" as="geometry" />
        </mxCell>
        <mxCell id="9yZzxRejICjtK0BxfgnQ-69" value="&lt;span style=&quot;text-align: left;&quot;&gt;percepcao&lt;/span&gt;" style="ellipse;whiteSpace=wrap;html=1;align=center;dashed=1;fontFamily=Helvetica;fontSize=11;fontColor=default;labelBackgroundColor=default;" parent="1" vertex="1">
          <mxGeometry x="850" y="550" width="100" height="40" as="geometry" />
        </mxCell>
        <mxCell id="9yZzxRejICjtK0BxfgnQ-71" value="&lt;span style=&quot;text-align: left;&quot;&gt;sobrevivencia&lt;/span&gt;" style="ellipse;whiteSpace=wrap;html=1;align=center;dashed=1;fontFamily=Helvetica;fontSize=11;fontColor=default;labelBackgroundColor=default;" parent="1" vertex="1">
          <mxGeometry x="950" y="550" width="100" height="40" as="geometry" />
        </mxCell>
        <mxCell id="9yZzxRejICjtK0BxfgnQ-72" value="&lt;span style=&quot;text-align: left;&quot;&gt;atuacao&lt;/span&gt;" style="ellipse;whiteSpace=wrap;html=1;align=center;dashed=1;fontFamily=Helvetica;fontSize=11;fontColor=default;labelBackgroundColor=default;" parent="1" vertex="1">
          <mxGeometry x="650" y="590" width="100" height="40" as="geometry" />
        </mxCell>
        <mxCell id="9yZzxRejICjtK0BxfgnQ-74" value="&lt;span style=&quot;text-align: left;&quot;&gt;blefar&lt;/span&gt;" style="ellipse;whiteSpace=wrap;html=1;align=center;dashed=1;fontFamily=Helvetica;fontSize=11;fontColor=default;labelBackgroundColor=default;" parent="1" vertex="1">
          <mxGeometry x="750" y="590" width="100" height="40" as="geometry" />
        </mxCell>
        <mxCell id="9yZzxRejICjtK0BxfgnQ-75" value="&lt;span style=&quot;text-align: left;&quot;&gt;intimidacao&amp;nbsp;&lt;/span&gt;" style="ellipse;whiteSpace=wrap;html=1;align=center;dashed=1;fontFamily=Helvetica;fontSize=11;fontColor=default;labelBackgroundColor=default;" parent="1" vertex="1">
          <mxGeometry x="850" y="590" width="100" height="40" as="geometry" />
        </mxCell>
        <mxCell id="9yZzxRejICjtK0BxfgnQ-80" value="&lt;span style=&quot;text-align: left;&quot;&gt;prestidigitacao&lt;/span&gt;" style="ellipse;whiteSpace=wrap;html=1;align=center;dashed=1;fontFamily=Helvetica;fontSize=11;fontColor=default;labelBackgroundColor=default;" parent="1" vertex="1">
          <mxGeometry x="850" y="470" width="100" height="40" as="geometry" />
        </mxCell>
        <mxCell id="9yZzxRejICjtK0BxfgnQ-81" value="&lt;div style=&quot;text-align: left;&quot;&gt;&lt;span style=&quot;background-color: light-dark(#ffffff, var(--ge-dark-color, #121212)); color: light-dark(rgb(0, 0, 0), rgb(255, 255, 255));&quot;&gt;iniciativa&lt;/span&gt;&lt;/div&gt;" style="ellipse;whiteSpace=wrap;html=1;align=center;dashed=1;fontFamily=Helvetica;fontSize=11;fontColor=default;labelBackgroundColor=default;" parent="1" vertex="1">
          <mxGeometry x="950" y="470" width="100" height="40" as="geometry" />
        </mxCell>
        <mxCell id="9yZzxRejICjtK0BxfgnQ-83" value="Raca" style="rounded=1;arcSize=10;whiteSpace=wrap;html=1;align=center;" parent="1" vertex="1">
          <mxGeometry x="230" y="350" width="100" height="40" as="geometry" />
        </mxCell>
        <mxCell id="9yZzxRejICjtK0BxfgnQ-85" value="descricao" style="ellipse;whiteSpace=wrap;html=1;align=center;fontFamily=Helvetica;fontSize=11;fontColor=default;labelBackgroundColor=default;" parent="1" vertex="1">
          <mxGeometry x="340" y="390" width="100" height="40" as="geometry" />
        </mxCell>
        <mxCell id="9yZzxRejICjtK0BxfgnQ-86" value="descricao" style="ellipse;whiteSpace=wrap;html=1;align=center;fontFamily=Helvetica;fontSize=11;fontColor=default;labelBackgroundColor=default;" parent="1" vertex="1">
          <mxGeometry x="230" y="390" width="100" height="40" as="geometry" />
        </mxCell>
        <mxCell id="9yZzxRejICjtK0BxfgnQ-88" style="edgeStyle=none;shape=connector;rounded=0;orthogonalLoop=1;jettySize=auto;html=1;exitX=0.5;exitY=1;exitDx=0;exitDy=0;entryX=0.5;entryY=0;entryDx=0;entryDy=0;strokeColor=default;align=center;verticalAlign=middle;fontFamily=Helvetica;fontSize=11;fontColor=default;labelBackgroundColor=default;startFill=0;endArrow=none;" parent="1" source="9yZzxRejICjtK0BxfgnQ-87" target="9yZzxRejICjtK0BxfgnQ-3" edge="1">
          <mxGeometry relative="1" as="geometry" />
        </mxCell>
        <mxCell id="9yZzxRejICjtK0BxfgnQ-87" value="Inventario" style="rounded=1;arcSize=10;whiteSpace=wrap;html=1;align=center;" parent="1" vertex="1">
          <mxGeometry x="400" y="150" width="100" height="40" as="geometry" />
        </mxCell>
        <mxCell id="9yZzxRejICjtK0BxfgnQ-94" style="edgeStyle=none;shape=connector;rounded=0;orthogonalLoop=1;jettySize=auto;html=1;exitX=0.5;exitY=1;exitDx=0;exitDy=0;entryX=0.5;entryY=0;entryDx=0;entryDy=0;strokeColor=default;align=center;verticalAlign=middle;fontFamily=Helvetica;fontSize=11;fontColor=default;labelBackgroundColor=default;startFill=0;endArrow=none;" parent="1" source="9yZzxRejICjtK0BxfgnQ-89" target="9yZzxRejICjtK0BxfgnQ-87" edge="1">
          <mxGeometry relative="1" as="geometry" />
        </mxCell>
        <mxCell id="9yZzxRejICjtK0BxfgnQ-89" value="Item" style="rounded=1;arcSize=10;whiteSpace=wrap;html=1;align=center;fontFamily=Helvetica;fontSize=11;fontColor=default;labelBackgroundColor=default;" parent="1" vertex="1">
          <mxGeometry x="470" y="60" width="100" height="40" as="geometry" />
        </mxCell>
        <mxCell id="9yZzxRejICjtK0BxfgnQ-93" style="edgeStyle=none;shape=connector;rounded=0;orthogonalLoop=1;jettySize=auto;html=1;exitX=1;exitY=1;exitDx=0;exitDy=0;entryX=0.5;entryY=0;entryDx=0;entryDy=0;strokeColor=default;align=center;verticalAlign=middle;fontFamily=Helvetica;fontSize=11;fontColor=default;labelBackgroundColor=default;startFill=0;endArrow=none;" parent="1" source="9yZzxRejICjtK0BxfgnQ-92" target="9yZzxRejICjtK0BxfgnQ-87" edge="1">
          <mxGeometry relative="1" as="geometry" />
        </mxCell>
        <mxCell id="9yZzxRejICjtK0BxfgnQ-92" value="moedas" style="ellipse;whiteSpace=wrap;html=1;align=center;fontFamily=Helvetica;fontSize=11;fontColor=default;labelBackgroundColor=default;" parent="1" vertex="1">
          <mxGeometry x="314" y="70" width="100" height="40" as="geometry" />
        </mxCell>
        <mxCell id="9yZzxRejICjtK0BxfgnQ-95" value="dano" style="ellipse;whiteSpace=wrap;html=1;align=center;fontFamily=Helvetica;fontSize=11;fontColor=default;labelBackgroundColor=default;" parent="1" vertex="1">
          <mxGeometry x="590" y="60" width="100" height="40" as="geometry" />
        </mxCell>
        <mxCell id="9yZzxRejICjtK0BxfgnQ-97" value="descricao" style="ellipse;whiteSpace=wrap;html=1;align=center;fontFamily=Helvetica;fontSize=11;fontColor=default;labelBackgroundColor=default;" parent="1" vertex="1">
          <mxGeometry x="470" y="10" width="100" height="40" as="geometry" />
        </mxCell>
        <mxCell id="9yZzxRejICjtK0BxfgnQ-99" value="Aparencia" style="rounded=1;arcSize=10;whiteSpace=wrap;html=1;align=center;" parent="1" vertex="1">
          <mxGeometry x="560" y="280" width="100" height="40" as="geometry" />
        </mxCell>
        <mxCell id="9yZzxRejICjtK0BxfgnQ-101" value="cabelo" style="ellipse;whiteSpace=wrap;html=1;align=center;fontFamily=Helvetica;fontSize=11;fontColor=default;labelBackgroundColor=default;" parent="1" vertex="1">
          <mxGeometry x="660" y="240" width="100" height="40" as="geometry" />
        </mxCell>
        <mxCell id="9yZzxRejICjtK0BxfgnQ-102" value="pele" style="ellipse;whiteSpace=wrap;html=1;align=center;fontFamily=Helvetica;fontSize=11;fontColor=default;labelBackgroundColor=default;" parent="1" vertex="1">
          <mxGeometry x="660" y="280" width="100" height="40" as="geometry" />
        </mxCell>
        <mxCell id="9yZzxRejICjtK0BxfgnQ-103" value="altura" style="ellipse;whiteSpace=wrap;html=1;align=center;fontFamily=Helvetica;fontSize=11;fontColor=default;labelBackgroundColor=default;" parent="1" vertex="1">
          <mxGeometry x="660" y="320" width="100" height="40" as="geometry" />
        </mxCell>
        <mxCell id="9yZzxRejICjtK0BxfgnQ-104" value="peso" style="ellipse;whiteSpace=wrap;html=1;align=center;fontFamily=Helvetica;fontSize=11;fontColor=default;labelBackgroundColor=default;" parent="1" vertex="1">
          <mxGeometry x="660" y="360" width="100" height="40" as="geometry" />
        </mxCell>
        <mxCell id="9yZzxRejICjtK0BxfgnQ-105" value="olho" style="ellipse;whiteSpace=wrap;html=1;align=center;fontFamily=Helvetica;fontSize=11;fontColor=default;labelBackgroundColor=default;" parent="1" vertex="1">
          <mxGeometry x="660" y="200" width="100" height="40" as="geometry" />
        </mxCell>
        <mxCell id="9yZzxRejICjtK0BxfgnQ-107" value="&lt;div style=&quot;text-align: left;&quot;&gt;&lt;span style=&quot;background-color: light-dark(#ffffff, var(--ge-dark-color, #121212)); color: light-dark(rgb(0, 0, 0), rgb(255, 255, 255));&quot;&gt;forca&lt;/span&gt;&lt;/div&gt;" style="ellipse;whiteSpace=wrap;html=1;align=center;dashed=1;fontFamily=Helvetica;fontSize=11;fontColor=default;labelBackgroundColor=default;" parent="1" vertex="1">
          <mxGeometry x="550" y="430" width="100" height="40" as="geometry" />
        </mxCell>
        <mxCell id="9yZzxRejICjtK0BxfgnQ-108" value="&lt;div style=&quot;text-align: left;&quot;&gt;&lt;span style=&quot;background-color: light-dark(#ffffff, var(--ge-dark-color, #121212)); color: light-dark(rgb(0, 0, 0), rgb(255, 255, 255));&quot;&gt;destreza&lt;/span&gt;&lt;/div&gt;" style="ellipse;whiteSpace=wrap;html=1;align=center;dashed=1;fontFamily=Helvetica;fontSize=11;fontColor=default;labelBackgroundColor=default;" parent="1" vertex="1">
          <mxGeometry x="550" y="470" width="100" height="40" as="geometry" />
        </mxCell>
        <mxCell id="9yZzxRejICjtK0BxfgnQ-109" value="&lt;div style=&quot;text-align: left;&quot;&gt;&lt;span style=&quot;background-color: light-dark(#ffffff, var(--ge-dark-color, #121212)); color: light-dark(rgb(0, 0, 0), rgb(255, 255, 255));&quot;&gt;inteligencia&lt;/span&gt;&lt;/div&gt;" style="ellipse;whiteSpace=wrap;html=1;align=center;dashed=1;fontFamily=Helvetica;fontSize=11;fontColor=default;labelBackgroundColor=default;" parent="1" vertex="1">
          <mxGeometry x="550" y="510" width="100" height="40" as="geometry" />
        </mxCell>
        <mxCell id="9yZzxRejICjtK0BxfgnQ-110" value="&lt;div style=&quot;text-align: left;&quot;&gt;&lt;span style=&quot;background-color: light-dark(#ffffff, var(--ge-dark-color, #121212)); color: light-dark(rgb(0, 0, 0), rgb(255, 255, 255));&quot;&gt;sabedoria&lt;/span&gt;&lt;/div&gt;" style="ellipse;whiteSpace=wrap;html=1;align=center;dashed=1;fontFamily=Helvetica;fontSize=11;fontColor=default;labelBackgroundColor=default;" parent="1" vertex="1">
          <mxGeometry x="550" y="550" width="100" height="40" as="geometry" />
        </mxCell>
        <mxCell id="9yZzxRejICjtK0BxfgnQ-112" value="&lt;div style=&quot;text-align: left;&quot;&gt;&lt;span style=&quot;background-color: light-dark(#ffffff, var(--ge-dark-color, #121212)); color: light-dark(rgb(0, 0, 0), rgb(255, 255, 255));&quot;&gt;forca&lt;/span&gt;&lt;/div&gt;" style="ellipse;whiteSpace=wrap;html=1;align=center;dashed=1;fontFamily=Helvetica;fontSize=11;fontColor=default;labelBackgroundColor=default;" parent="1" vertex="1">
          <mxGeometry x="550" y="590" width="100" height="40" as="geometry" />
        </mxCell>
        <mxCell id="9yZzxRejICjtK0BxfgnQ-113" value="&lt;div style=&quot;text-align: left;&quot;&gt;&lt;span style=&quot;background-color: light-dark(#ffffff, var(--ge-dark-color, #121212)); color: light-dark(rgb(0, 0, 0), rgb(255, 255, 255));&quot;&gt;constituicao&lt;/span&gt;&lt;/div&gt;" style="ellipse;whiteSpace=wrap;html=1;align=center;dashed=1;fontFamily=Helvetica;fontSize=11;fontColor=default;labelBackgroundColor=default;" parent="1" vertex="1">
          <mxGeometry x="550" y="390" width="100" height="40" as="geometry" />
        </mxCell>
        <mxCell id="9yZzxRejICjtK0BxfgnQ-115" style="edgeStyle=none;shape=connector;rounded=0;orthogonalLoop=1;jettySize=auto;html=1;exitX=1;exitY=0.5;exitDx=0;exitDy=0;entryX=0.5;entryY=0;entryDx=0;entryDy=0;strokeColor=default;align=center;verticalAlign=middle;fontFamily=Helvetica;fontSize=11;fontColor=default;labelBackgroundColor=default;startFill=0;endArrow=none;" parent="1" source="9yZzxRejICjtK0BxfgnQ-114" target="9yZzxRejICjtK0BxfgnQ-2" edge="1">
          <mxGeometry relative="1" as="geometry" />
        </mxCell>
        <mxCell id="9yZzxRejICjtK0BxfgnQ-114" value="id" style="ellipse;whiteSpace=wrap;html=1;align=center;fontFamily=Helvetica;fontSize=11;fontColor=default;labelBackgroundColor=default;" parent="1" vertex="1">
          <mxGeometry x="-20" y="160" width="100" height="40" as="geometry" />
        </mxCell>
        <mxCell id="9yZzxRejICjtK0BxfgnQ-117" style="edgeStyle=none;shape=connector;rounded=0;orthogonalLoop=1;jettySize=auto;html=1;exitX=1;exitY=0.5;exitDx=0;exitDy=0;entryX=0;entryY=0.5;entryDx=0;entryDy=0;strokeColor=default;align=center;verticalAlign=middle;fontFamily=Helvetica;fontSize=11;fontColor=default;labelBackgroundColor=default;startFill=0;endArrow=none;" parent="1" source="9yZzxRejICjtK0BxfgnQ-116" target="9yZzxRejICjtK0BxfgnQ-17" edge="1">
          <mxGeometry relative="1" as="geometry" />
        </mxCell>
        <mxCell id="9yZzxRejICjtK0BxfgnQ-116" value="Geral" style="rounded=1;arcSize=10;whiteSpace=wrap;html=1;align=center;" parent="1" vertex="1">
          <mxGeometry x="560" y="140" width="100" height="40" as="geometry" />
        </mxCell>
      </root>
    </mxGraphModel>
  </diagram>
</mxfile>
